<?xml version="1.0" standalone="no"?>
<!DOCTYPE svg PUBLIC "-//W3C//DTD SVG 20010904//EN"
 "http://www.w3.org/TR/2001/REC-SVG-20010904/DTD/svg10.dtd">
<svg version="1.0" xmlns="http://www.w3.org/2000/svg"
 width="1352.000000pt" height="1352.000000pt" viewBox="0 0 1352.000000 1352.000000"
 preserveAspectRatio="xMidYMid meet">
<metadata>
Created by potrace 1.14, written by Peter Selinger 2001-2017
</metadata>
<g transform="translate(0.000000,1352.000000) scale(0.100000,-0.100000)"
fill="#000000" stroke="none">
<path d="M4172 9725 c27 -45 80 -165 72 -165 -2 0 0 -9 6 -20 40 -75 24 -338
-26 -417 -8 -13 -12 -23 -9 -23 14 0 -125 -240 -160 -276 -5 -6 -19 -23 -30
-38 -11 -15 -31 -40 -45 -55 -14 -15 -59 -65 -100 -111 -41 -46 -82 -91 -91
-101 -27 -31 -30 -22 -7 19 44 77 81 155 88 187 1 6 11 31 21 58 10 26 17 47
14 47 -2 0 0 12 5 26 20 51 27 174 15 237 -17 85 -69 172 -140 234 -111 96
-266 141 -485 141 -406 0 -864 -218 -1129 -537 -20 -24 -40 -49 -46 -55 -15
-17 -87 -125 -103 -155 -53 -100 -91 -180 -98 -206 -4 -16 -10 -34 -14 -40 -8
-11 -36 -114 -44 -160 -3 -16 -8 -41 -11 -55 -17 -80 -24 -314 -11 -425 23
-210 90 -414 220 -675 56 -112 198 -356 225 -387 6 -7 11 -14 11 -17 0 -6 229
-371 281 -447 118 -175 199 -402 193 -544 -12 -289 -123 -525 -365 -776 -163
-169 -536 -394 -719 -435 -3 0 -12 -3 -20 -7 -8 -3 -55 -18 -105 -32 -49 -14
-117 -35 -150 -47 -33 -11 -67 -21 -75 -23 -8 -2 -35 -11 -60 -20 -48 -18 -54
-20 -115 -34 -47 -11 -89 -18 -165 -26 -30 -3 -73 -8 -95 -10 -44 -5 -305 -5
-345 -1 -119 14 -228 75 -267 149 -31 62 -35 159 -9 232 44 120 101 187 264
308 56 42 105 77 107 77 3 0 27 15 53 33 26 18 121 80 212 137 154 98 233 152
264 182 7 7 41 37 75 67 89 77 148 173 168 271 7 34 7 139 0 170 -13 59 -44
107 -82 127 -26 14 -65 -1 -66 -24 -2 -53 -22 -103 -62 -151 -68 -83 -282
-272 -432 -383 -33 -24 -62 -46 -65 -49 -3 -3 -36 -32 -75 -65 -38 -33 -110
-100 -160 -150 -241 -242 -321 -397 -318 -620 3 -195 113 -314 334 -361 50
-11 124 -17 227 -16 83 0 152 -2 152 -3 0 -2 -24 -11 -52 -21 -29 -9 -57 -19
-63 -23 -5 -3 -12 -6 -15 -7 -3 0 -14 -4 -25 -9 -11 -5 -56 -23 -100 -40 -88
-35 -339 -142 -364 -155 -52 -27 -211 -100 -218 -100 -4 0 -17 -7 -28 -16 -16
-11 -17 -17 -7 -23 12 -7 66 10 157 49 119 50 809 283 905 305 8 2 53 15 100
28 214 63 768 203 783 199 4 -1 16 2 25 7 10 5 38 12 62 16 25 4 47 8 51 10 3
2 21 7 40 10 19 3 70 15 114 26 44 11 94 22 110 25 17 2 73 14 125 25 52 11
106 23 120 25 14 2 39 7 55 11 17 3 37 7 45 8 8 1 56 10 105 19 50 10 101 19
115 21 14 2 63 11 110 19 47 8 103 18 125 21 23 3 50 7 60 9 11 2 47 7 80 10
33 4 67 9 75 11 8 2 35 7 60 9 25 3 95 13 155 22 61 9 128 17 150 19 22 2 40
4 40 5 0 2 102 16 195 25 19 3 55 7 80 11 46 6 70 9 150 18 25 3 72 8 105 12
33 4 74 8 90 10 17 1 30 3 30 4 0 0 27 3 60 5 33 3 79 7 103 10 40 5 93 10
227 20 28 2 79 6 115 9 104 8 220 17 285 21 33 3 103 7 155 11 391 26 1191 35
1781 21 l265 -7 65 -29 c62 -28 169 -66 217 -76 12 -3 32 -7 44 -10 72 -15
119 -19 258 -20 149 0 215 5 290 23 39 10 54 9 102 -7 95 -30 280 -37 385 -14
37 8 73 15 78 15 24 1 230 -22 330 -37 17 -2 53 -7 80 -10 28 -3 61 -7 75 -9
14 -3 48 -7 75 -10 28 -4 61 -9 75 -11 14 -3 43 -7 65 -10 22 -3 54 -8 70 -10
32 -5 152 -24 195 -31 14 -2 45 -7 70 -10 40 -5 485 -85 550 -99 14 -3 39 -7
55 -10 25 -5 66 -13 98 -21 4 -1 18 -2 32 -3 16 -1 47 -23 87 -61 71 -70 163
-118 241 -128 118 -15 267 -6 356 20 41 12 54 11 175 -20 72 -18 142 -35 156
-38 14 -3 59 -14 101 -25 42 -11 85 -22 95 -24 24 -5 296 -78 394 -106 41 -11
100 -28 130 -36 30 -8 60 -18 65 -21 6 -4 18 -8 28 -9 48 -8 613 -196 832
-278 87 -33 87 -33 92 -18 4 12 -65 53 -91 53 -8 0 -16 4 -18 8 -1 4 -25 17
-53 29 -131 55 -343 145 -365 155 -14 6 -29 12 -35 14 -5 1 -66 24 -135 52
-260 104 -901 323 -1019 347 -9 2 -26 7 -38 12 -20 7 -17 11 35 38 127 65 291
186 402 297 88 88 112 116 203 238 43 58 82 110 87 117 6 7 10 14 10 16 0 2
36 62 80 133 44 71 83 135 88 143 6 11 25 7 97 -24 50 -22 116 -54 148 -72 33
-18 61 -33 63 -33 15 0 169 -123 225 -179 111 -113 201 -268 226 -391 8 -40
16 -108 15 -130 -1 -23 2 -21 39 20 77 87 140 255 133 354 -15 192 -181 368
-464 489 -81 35 -285 98 -363 112 -20 4 -37 10 -37 13 0 3 25 56 55 118 30 63
55 118 55 124 0 5 5 10 10 10 6 0 10 4 10 9 0 20 386 811 400 821 4 3 10 15
14 28 4 12 27 57 50 100 23 42 67 122 96 177 29 55 73 138 98 185 25 47 50 88
56 92 6 4 7 10 3 14 -4 4 -8 5 -10 3 -2 -2 -45 -60 -97 -129 -89 -119 -292
-377 -339 -430 -179 -202 -372 -395 -521 -520 -14 -12 -36 -31 -50 -43 -40
-36 -278 -228 -354 -286 -46 -36 -71 -50 -76 -42 -6 11 -5 42 4 126 5 40 47
165 56 165 4 0 7 6 7 13 0 43 223 368 382 557 116 139 222 302 237 365 12 54
12 138 0 159 -25 47 -70 98 -98 112 -28 15 -29 14 -19 -4 33 -62 -26 -188
-187 -395 -42 -54 -39 -51 -97 -127 -27 -36 -52 -67 -55 -70 -10 -8 -140 -189
-140 -194 0 -3 -11 -21 -24 -41 -14 -20 -44 -75 -67 -123 -45 -93 -47 -96
-124 -157 -28 -21 -61 -49 -75 -61 -14 -13 -70 -60 -125 -106 -55 -45 -109
-90 -120 -100 -11 -9 -40 -33 -65 -53 -25 -20 -53 -42 -62 -50 -67 -55 -75
-53 -102 27 -43 129 35 357 217 628 80 119 216 301 272 364 6 6 37 45 69 86
33 41 93 114 133 162 69 81 76 87 121 94 26 3 56 8 67 10 11 2 40 7 65 10 25
3 52 7 60 9 8 2 37 7 65 11 74 9 135 39 135 65 0 24 -93 30 -262 15 -43 -4
-78 -5 -78 -2 0 3 14 20 30 38 16 18 30 38 30 45 0 7 4 13 8 13 6 0 21 28 38
75 17 44 31 141 28 192 -6 103 -45 178 -117 222 l-38 23 20 -37 c30 -56 21
-112 -35 -224 -26 -52 -51 -100 -56 -105 -5 -6 -50 -67 -99 -136 -50 -69 -98
-132 -107 -142 -9 -9 -39 -19 -67 -23 -27 -3 -59 -8 -70 -10 -11 -3 -37 -7
-57 -10 -54 -7 -147 -47 -226 -96 -19 -12 -34 -57 -14 -46 4 3 31 8 61 11 46
6 180 27 248 40 28 6 22 -11 -31 -86 -111 -153 -236 -339 -236 -349 0 -5 -4
-9 -10 -9 -5 0 -10 -4 -10 -9 0 -5 -29 -56 -65 -114 -35 -58 -89 -155 -119
-214 -44 -88 -64 -118 -107 -153 -29 -25 -57 -49 -63 -55 -6 -5 -40 -35 -76
-65 -36 -30 -67 -57 -70 -60 -4 -5 -216 -173 -268 -213 -50 -39 -25 165 35
291 28 58 84 156 131 227 26 40 147 200 167 221 5 6 21 26 35 44 14 18 35 44
48 59 49 55 141 179 181 244 75 122 99 238 64 313 -15 34 -64 83 -103 104 -21
11 -22 11 -15 -6 24 -58 4 -122 -80 -254 -28 -45 -282 -380 -295 -390 -13 -9
-130 -188 -130 -198 0 -6 -3 -12 -8 -14 -10 -4 -77 -141 -97 -198 -39 -109
-52 -263 -31 -355 12 -50 74 -165 89 -165 11 0 195 140 243 185 6 5 44 39 84
75 41 36 97 86 124 112 54 50 73 60 56 29 -15 -29 -23 -87 -24 -166 0 -57 5
-79 24 -114 32 -56 83 -97 141 -112 46 -12 47 -12 100 25 58 42 69 51 102 81
12 11 47 40 77 65 30 25 69 59 86 75 18 17 54 49 81 72 26 23 64 55 83 72 37
33 55 39 47 18 -6 -16 -22 -149 -19 -160 1 -4 5 -24 8 -45 10 -72 51 -167 84
-197 17 -16 20 -15 37 2 10 10 34 29 53 43 19 14 44 32 55 41 11 9 75 62 142
116 121 99 223 185 274 233 15 14 69 63 120 110 51 47 103 94 114 105 11 11
36 34 54 50 l34 30 -19 -30 c-10 -16 -37 -58 -60 -92 -51 -74 -180 -287 -221
-363 -91 -169 -198 -357 -209 -371 -11 -12 -26 -14 -62 -10 -104 11 -470 3
-557 -13 -11 -2 -42 -7 -68 -10 -64 -10 -116 -20 -157 -31 -3 -1 -18 -5 -35
-9 -16 -4 -79 -23 -139 -43 -276 -88 -471 -216 -609 -402 -74 -100 -136 -261
-141 -366 -1 -16 -5 -29 -9 -29 -51 10 -167 38 -186 45 -13 5 -26 8 -28 5 -3
-3 -16 0 -30 5 -14 5 -42 12 -62 15 -20 3 -54 10 -76 16 -22 6 -49 11 -60 13
-27 4 -82 14 -130 25 -22 5 -56 12 -75 15 -19 3 -43 8 -53 11 -10 3 -31 7 -48
9 -63 8 -114 17 -119 20 -3 2 -67 14 -141 25 -73 12 -141 23 -149 25 -8 1 -39
6 -67 10 -58 8 -75 20 -42 30 33 11 271 153 319 192 8 7 40 30 70 52 73 54
145 114 215 180 57 54 165 170 200 215 17 21 38 48 48 60 61 70 222 338 210
350 -4 3 -2 6 4 6 6 0 14 12 18 27 3 15 16 47 27 72 25 55 64 195 83 301 18
98 14 285 -9 396 -17 81 -98 304 -111 304 -3 0 -4 -87 -3 -192 1 -106 -1 -222
-5 -258 -11 -87 -23 -165 -27 -165 -1 0 -3 -12 -5 -26 -8 -58 -53 -205 -97
-319 -31 -77 -118 -261 -129 -270 -3 -3 -12 -16 -19 -30 -22 -42 -112 -175
-121 -178 -5 -2 -9 -10 -9 -17 0 -8 -6 -18 -13 -22 -8 -4 -18 -15 -23 -24 -36
-65 -264 -296 -399 -404 -181 -145 -363 -257 -405 -251 -49 8 -166 25 -210 31
-123 16 -123 16 -83 41 40 26 175 127 257 193 166 133 384 350 525 521 30 36
58 67 62 68 5 2 9 10 9 17 0 7 4 15 9 17 27 10 247 353 291 453 12 28 26 58
32 69 8 16 40 109 42 126 1 3 5 11 9 18 5 6 6 12 3 12 -2 0 2 24 10 53 51 186
8 355 -120 474 -61 57 -142 101 -206 111 -40 7 -210 6 -256 -2 -68 -11 -136
-38 -264 -102 -104 -53 -189 -102 -210 -124 -3 -3 -32 -26 -66 -52 -154 -118
-353 -320 -497 -503 -139 -177 -298 -440 -356 -590 -13 -33 -27 -69 -32 -80
-26 -62 -67 -251 -68 -315 0 -8 -1 -37 -2 -65 -2 -64 9 -183 20 -223 l9 -30
-41 3 c-72 6 -209 15 -287 20 -41 3 -120 7 -175 11 -55 3 -117 6 -137 7 -35 1
-40 5 -59 47 -24 49 -46 122 -56 185 -14 90 -3 310 23 435 4 19 8 41 10 49 10
50 29 121 41 148 7 18 13 35 13 38 0 3 0 6 1 8 0 1 2 13 5 26 2 14 8 29 13 35
4 6 16 36 25 66 10 30 24 69 31 85 8 17 23 53 33 80 11 28 37 86 58 130 21 44
38 82 39 85 4 18 89 174 158 288 45 74 87 142 92 151 92 152 348 451 387 451
9 0 53 -16 97 -35 45 -19 85 -35 89 -36 4 -1 12 -3 17 -5 124 -40 315 -79 435
-90 191 -16 531 -7 690 19 14 3 43 7 65 11 54 8 89 15 210 40 319 67 794 257
1077 432 184 113 388 281 495 408 35 41 103 157 118 201 20 59 22 157 5 211
-26 79 -118 183 -210 237 -67 39 -232 96 -337 117 -118 23 -389 20 -578 -5
-92 -13 -191 -27 -210 -32 -11 -2 -31 -6 -45 -9 -152 -28 -532 -136 -625 -179
-16 -7 -61 -26 -100 -41 -187 -74 -432 -197 -608 -306 -43 -26 -83 -48 -88
-48 -5 0 -9 -4 -9 -8 0 -5 -12 -15 -27 -23 -16 -8 -32 -18 -38 -22 -5 -4 -64
-46 -130 -94 -174 -124 -289 -222 -468 -395 -50 -49 -93 -88 -97 -88 -14 0
-94 118 -125 185 -97 209 -93 439 13 665 18 40 91 162 101 170 4 3 15 18 25
34 46 72 176 201 296 292 36 27 67 51 70 54 20 21 175 113 285 170 200 104
395 169 607 203 101 16 341 15 408 -2 25 -6 52 -13 60 -15 133 -33 325 -172
404 -293 30 -45 56 -62 56 -37 0 45 -136 199 -230 260 -25 16 -48 33 -52 39
-4 5 -8 6 -8 2 0 -5 -12 0 -27 11 -56 38 -275 110 -394 128 -131 20 -325 24
-447 11 -73 -8 -183 -30 -262 -53 -30 -8 -68 -19 -85 -23 -83 -22 -290 -121
-395 -189 -105 -68 -245 -192 -327 -289 -42 -49 -50 -61 -89 -123 -73 -117
-122 -242 -149 -377 -16 -83 -16 -251 -1 -338 14 -76 71 -251 90 -275 6 -8 22
-35 36 -60 26 -50 94 -145 110 -155 18 -11 10 -29 -37 -80 -50 -53 -173 -207
-213 -265 -13 -19 -27 -37 -30 -40 -16 -15 -205 -310 -223 -350 -4 -8 -18 -33
-32 -55 -54 -88 -241 -486 -236 -503 1 -1 -6 -19 -15 -40 -78 -185 -134 -454
-139 -662 -2 -93 1 -137 19 -255 10 -63 38 -151 67 -212 16 -34 31 -66 32 -70
1 -4 -38 -6 -88 -4 -247 11 -1048 3 -1380 -14 -164 -8 -284 -15 -345 -20 -36
-3 -92 -8 -125 -10 -33 -2 -90 -7 -127 -10 -38 -3 -96 -7 -130 -10 -85 -6
-157 -14 -193 -19 -16 -3 -66 -8 -110 -12 -44 -3 -88 -8 -97 -9 -9 -2 -48 -7
-85 -10 -95 -10 -170 -19 -243 -31 -14 -2 -52 -7 -85 -10 -33 -4 -63 -8 -66
-10 -3 -1 -31 -6 -63 -9 -31 -4 -67 -8 -79 -11 -12 -2 -44 -7 -72 -10 -27 -3
-53 -8 -57 -10 -3 -2 -28 -7 -55 -9 -26 -3 -57 -7 -69 -10 -12 -3 -39 -7 -60
-10 -21 -4 -46 -8 -54 -11 -8 -2 -38 -6 -65 -10 -27 -3 -53 -7 -56 -10 -4 -2
-29 -7 -55 -10 -27 -3 -51 -7 -54 -9 -4 -2 -29 -7 -56 -11 -27 -3 -52 -8 -55
-10 -5 -3 -24 -7 -104 -20 -16 -3 -66 -13 -110 -24 -101 -23 -145 -33 -170
-36 -11 -1 -20 -3 -20 -4 0 -1 -11 -4 -24 -6 -14 -2 -90 -20 -170 -40 -80 -19
-155 -37 -166 -39 -59 -12 -125 -29 -160 -40 -95 -30 -94 -23 4 35 300 174
560 442 678 698 19 41 36 81 39 91 2 9 13 52 24 96 14 54 21 116 22 190 2 131
-3 179 -32 285 -7 25 -13 50 -15 55 -2 11 -7 23 -43 110 -33 81 -53 115 -214
359 -76 115 -138 213 -138 218 0 4 -3 8 -8 8 -4 0 -12 9 -17 19 -10 20 -147
236 -162 257 -20 26 -106 194 -141 274 -44 103 -94 268 -107 355 -4 22 -8 51
-11 65 -26 143 -25 460 1 580 3 14 10 43 14 65 47 213 145 408 268 533 256
261 675 302 937 92 159 -127 225 -353 176 -600 -28 -144 -91 -305 -138 -356
-17 -17 -166 -196 -198 -236 -7 -10 -26 -37 -41 -60 -15 -24 -31 -45 -35 -48
-16 -12 -108 -174 -108 -191 0 -10 -4 -20 -9 -23 -9 -6 -40 -110 -46 -154 -2
-15 -4 -27 -5 -27 -1 0 -3 -15 -4 -33 -3 -42 7 -30 23 28 52 181 270 432 662
761 41 35 88 73 103 84 16 11 33 25 40 30 6 6 49 42 96 80 47 38 87 72 90 76
3 3 41 36 85 74 88 75 227 214 290 289 22 26 50 60 63 75 30 36 86 144 107
210 18 54 24 161 12 215 -11 49 -40 126 -49 126 -4 0 -8 6 -8 13 0 8 -8 23
-17 35 -10 11 -28 34 -40 49 -58 73 -168 171 -257 229 l-29 18 25 -39z m6699
-779 c48 -3 93 -8 100 -11 8 -2 28 -7 44 -10 36 -7 37 -7 100 -27 179 -57 248
-137 221 -258 -29 -129 -206 -316 -495 -524 -50 -37 -95 -66 -100 -66 -5 0
-11 -3 -13 -7 -4 -11 -85 -63 -97 -63 -5 0 -11 -3 -13 -8 -13 -29 -547 -306
-743 -384 -27 -11 -61 -25 -75 -31 -14 -5 -29 -11 -35 -13 -5 -2 -41 -15 -79
-29 -131 -49 -304 -87 -511 -112 -120 -15 -457 -5 -488 14 -4 2 -22 6 -40 9
-47 6 -69 11 -102 24 -16 6 -37 13 -46 15 -32 7 -229 87 -229 93 0 21 336 344
500 481 36 30 70 60 75 66 6 6 75 61 155 122 246 187 505 349 743 463 123 59
367 160 387 160 6 0 18 4 28 10 9 5 44 17 77 27 68 19 68 19 115 27 19 4 42 9
50 11 45 13 260 31 335 28 28 -1 89 -4 136 -7z m-1006 -1771 c118 -31 189
-158 190 -340 0 -87 -4 -113 -33 -200 -80 -242 -249 -517 -472 -770 -79 -90
-321 -326 -410 -401 -52 -43 -97 -81 -100 -84 -9 -10 -155 -117 -185 -136 -16
-10 -32 -21 -35 -24 -3 -4 -44 -30 -92 -58 -76 -46 -91 -51 -125 -46 -21 3
-51 8 -68 9 -93 8 -182 18 -198 21 -9 1 -56 6 -105 9 -48 4 -91 11 -97 16 -17
17 -11 246 9 329 23 93 84 245 148 370 55 106 208 340 290 441 29 36 69 86 88
110 119 148 324 344 500 479 58 44 110 85 117 90 7 6 15 10 18 10 4 0 25 13
48 29 98 67 321 162 345 147 5 -3 14 -1 21 3 15 10 103 7 146 -4z m2190 -1579
c50 -3 115 -11 145 -16 30 -5 67 -11 83 -12 15 -1 27 -7 27 -13 0 -6 -37 -71
-82 -144 -110 -176 -104 -167 -176 -271 -63 -92 -70 -101 -132 -174 -47 -55
-225 -233 -275 -274 -56 -46 -166 -118 -192 -126 -15 -5 -76 7 -170 33 -183
50 -287 77 -380 101 -39 10 -76 21 -82 24 -17 11 -33 118 -28 186 12 145 77
277 192 394 97 98 192 159 315 201 3 1 12 4 20 8 25 10 153 46 185 51 17 3 41
8 55 11 34 7 85 14 155 21 33 3 61 6 62 7 3 4 194 -1 278 -7z"/>
<path d="M5540 9111 c-272 -108 -492 -280 -875 -685 -11 -11 -61 -68 -110
-126 -50 -58 -94 -110 -100 -116 -5 -6 -21 -26 -35 -44 -14 -18 -43 -56 -65
-84 -23 -28 -58 -76 -80 -106 -22 -30 -42 -57 -45 -60 -41 -39 -322 -485 -475
-755 -51 -90 -189 -366 -227 -455 -51 -118 -121 -340 -142 -449 -16 -83 -15
-271 2 -312 16 -40 71 -99 106 -113 28 -12 34 -11 72 15 58 39 183 140 272
220 24 21 65 57 92 80 27 23 68 59 91 80 24 21 44 37 46 35 2 -1 -1 -25 -6
-52 -5 -27 -9 -88 -9 -136 1 -137 48 -215 148 -246 53 -17 185 -8 260 18 191
64 466 319 652 604 172 265 231 464 202 691 -8 63 -66 188 -104 222 -118 105
-255 84 -480 -75 -147 -104 -335 -325 -464 -546 -58 -100 -140 -276 -161 -346
-8 -28 -60 -80 -185 -183 -47 -39 -87 -74 -90 -77 -3 -3 -30 -25 -60 -50 -30
-25 -57 -47 -60 -50 -3 -3 -23 -19 -45 -35 -22 -16 -47 -35 -55 -42 -67 -54
-126 -91 -132 -85 -21 21 -45 112 -43 163 9 205 108 441 370 877 110 182 143
221 579 656 238 237 468 471 512 520 43 49 84 94 89 100 10 10 37 40 161 177
18 20 71 83 119 140 48 57 96 115 107 128 11 13 76 97 143 186 120 158 155
223 155 288 0 47 -52 59 -130 28z m62 -97 c-2 -10 -7 -21 -11 -24 -4 -3 -43
-50 -87 -105 -43 -55 -86 -109 -95 -120 -10 -11 -44 -51 -76 -90 -32 -38 -67
-81 -78 -93 -11 -13 -27 -32 -35 -41 -33 -40 -200 -227 -260 -291 -14 -15 -62
-67 -107 -116 -80 -88 -115 -125 -276 -294 -134 -141 -458 -470 -463 -470 -4
0 45 79 56 90 3 3 25 34 49 70 65 97 105 154 112 160 3 3 38 50 79 105 74 101
242 316 270 345 8 9 31 36 50 60 19 24 40 48 46 54 5 6 39 45 74 86 151 177
385 409 590 586 24 22 54 47 65 58 30 28 79 56 90 52 6 -2 8 -12 7 -22z m-525
-1675 c21 -18 55 -88 61 -129 8 -48 7 -145 -3 -205 -4 -27 -9 -57 -10 -65 -1
-8 -5 -22 -8 -30 -3 -8 -16 -46 -28 -85 -22 -65 -110 -249 -154 -322 -22 -36
-84 -68 -124 -65 -95 8 -112 179 -47 457 1 6 6 26 10 45 9 39 72 207 86 230 5
8 17 31 27 50 9 19 41 59 70 88 54 55 82 62 120 31z m-342 -265 c-15 -36 -29
-74 -31 -83 -42 -162 -47 -203 -48 -341 -1 -137 0 -148 26 -202 29 -63 64 -91
114 -92 19 -1 34 -3 34 -6 0 -5 -43 -57 -150 -185 -45 -53 -204 -210 -250
-247 -62 -50 -135 -87 -162 -83 -46 7 -55 11 -69 26 -14 15 -16 19 -28 74 -8
35 -7 102 3 164 30 184 330 759 495 951 12 14 36 42 54 62 18 20 33 35 35 33
2 -2 -8 -34 -23 -71z"/>
<path d="M11744 8308 c-22 -18 -41 -35 -44 -38 -3 -3 -36 -32 -75 -65 -38 -33
-77 -67 -86 -75 -14 -12 -16 -29 -13 -85 2 -38 4 -89 5 -112 1 -24 7 -43 13
-43 6 0 34 22 61 48 28 26 80 72 115 102 34 30 68 60 74 66 6 6 10 28 9 50 -2
21 -5 70 -7 107 -2 38 -6 71 -9 73 -3 3 -22 -10 -43 -28z"/>
<path d="M6168 7938 c30 -61 10 -140 -67 -273 -19 -33 -39 -64 -43 -70 -5 -5
-31 -41 -59 -80 -27 -38 -55 -77 -62 -85 -7 -8 -28 -36 -46 -62 -25 -35 -41
-48 -60 -49 -14 0 -33 -2 -41 -4 -8 -1 -49 -8 -90 -14 -105 -17 -290 -106
-274 -133 7 -12 72 -6 229 21 61 11 112 17 115 14 3 -2 -3 -10 -13 -17 -9 -7
-17 -16 -17 -20 0 -9 -43 -70 -52 -74 -5 -2 -8 -10 -8 -17 0 -7 -3 -15 -7 -17
-9 -4 -24 -24 -120 -168 -121 -181 -203 -314 -203 -329 0 -5 -4 -11 -9 -13
-12 -4 -107 -194 -137 -276 -28 -72 -56 -225 -49 -261 18 -91 49 -139 114
-174 75 -42 92 -41 158 6 32 22 60 43 63 46 3 4 52 46 110 96 58 49 120 103
138 120 56 50 62 48 31 -13 -57 -110 -49 -203 22 -247 81 -52 246 -62 369 -23
143 45 313 224 407 428 17 36 40 85 51 110 30 65 66 173 117 350 25 85 50 173
57 195 6 22 12 45 14 50 1 6 9 37 18 70 9 33 19 71 22 84 3 13 9 32 15 43 5
10 8 18 5 18 -5 0 59 194 72 215 4 8 39 47 77 87 129 134 145 156 145 191 0
18 -7 42 -15 54 -13 19 -20 21 -43 12 -30 -12 -80 -63 -125 -129 -17 -25 -33
-47 -36 -50 -3 -3 -11 -14 -18 -25 -21 -34 -86 -149 -98 -172 -10 -18 -166
-189 -310 -338 -32 -34 -109 -116 -230 -249 -23 -24 -173 -204 -210 -251 -22
-27 -44 -55 -50 -62 -5 -6 -23 -31 -40 -54 -26 -36 -150 -149 -281 -256 -22
-17 -49 -39 -60 -50 -33 -28 -114 -96 -142 -118 -13 -11 -44 -36 -68 -55 -23
-19 -57 -43 -74 -53 l-30 -18 -15 35 c-8 19 -15 42 -15 50 0 8 -3 17 -8 20 -4
2 -7 29 -6 59 6 159 150 444 366 724 82 106 396 489 410 500 7 6 67 19 133 29
66 10 122 18 125 19 3 1 33 5 68 9 113 14 157 85 55 87 -26 1 -50 1 -53 1 -3
0 -50 -3 -105 -7 -54 -3 -103 -8 -107 -11 -4 -3 -8 1 -8 10 0 8 4 16 9 18 21
7 82 114 101 175 45 147 20 286 -67 368 -48 45 -67 46 -45 3z m543 -815 c-5
-10 -13 -29 -19 -43 -6 -14 -24 -55 -41 -93 -17 -37 -31 -69 -31 -72 0 -3 -23
-53 -51 -112 -28 -60 -62 -132 -76 -162 -48 -104 -263 -444 -360 -570 -54 -71
-168 -180 -208 -200 -54 -27 -87 -23 -111 15 -26 39 -25 90 4 153 24 53 146
245 194 304 111 137 152 186 233 282 105 123 116 135 266 296 59 63 128 138
154 167 50 55 61 63 46 35z"/>
<path d="M4447 4526 l-66 -134 -48 -6 c-26 -4 -64 -10 -83 -12 -19 -3 -62 -9
-95 -15 -33 -5 -64 -9 -70 -9 -5 0 40 -49 102 -108 l111 -108 -19 -104 c-24
-126 -33 -190 -27 -190 8 0 222 112 233 121 16 16 42 10 107 -23 35 -18 65
-35 68 -38 8 -8 116 -60 124 -60 4 0 5 3 3 8 -5 7 -11 38 -23 122 -3 19 -7 42
-9 50 -2 8 -7 35 -10 60 -4 25 -8 47 -10 48 -2 2 46 51 106 110 60 58 107 107
105 109 -4 5 -30 9 -97 19 -30 4 -61 8 -69 9 -8 1 -41 5 -72 10 l-57 7 -65
134 c-36 74 -67 134 -69 134 -2 0 -33 -60 -70 -134z"/>
<path d="M5535 4530 c-37 -74 -68 -136 -69 -137 -1 -1 -48 -8 -131 -19 -22 -3
-53 -8 -70 -11 -16 -3 -42 -6 -57 -7 -15 -1 -29 -4 -32 -7 -3 -3 42 -52 100
-109 l106 -103 -6 -42 c-9 -58 -30 -177 -40 -232 -3 -13 -2 -23 0 -23 3 0 65
31 138 69 74 38 137 66 142 62 9 -9 205 -110 237 -124 18 -6 19 -4 12 30 -4
21 -9 52 -12 68 -2 17 -6 41 -9 55 -3 14 -9 50 -14 80 l-10 55 112 107 c62 59
109 108 103 108 -38 5 -153 21 -175 25 -8 1 -39 6 -68 10 l-53 7 -68 136 -68
137 -68 -135z"/>
<path d="M6617 4525 c-47 -94 -72 -135 -84 -136 -10 0 -27 -2 -38 -4 -29 -5
-104 -16 -145 -21 -55 -7 -82 -13 -88 -18 -2 -3 44 -52 103 -110 80 -78 105
-109 101 -123 -3 -10 -8 -34 -11 -53 -3 -19 -7 -46 -10 -60 -3 -14 -7 -41 -10
-60 -3 -19 -8 -50 -11 -67 -4 -18 -4 -33 0 -33 8 0 239 121 250 131 7 6 195
-84 231 -111 6 -4 19 -10 31 -14 l21 -6 -23 137 c-13 76 -24 143 -24 150 0 6
47 58 105 114 118 115 118 112 4 124 -35 4 -66 8 -69 10 -3 2 -32 6 -65 9 -32
4 -60 8 -61 9 -1 1 -32 62 -68 135 -36 72 -67 132 -69 132 -1 0 -33 -61 -70
-135z"/>
<path d="M7704 4526 c-54 -108 -72 -136 -88 -137 -12 0 -29 -2 -38 -4 -26 -5
-98 -15 -144 -21 -106 -13 -107 -8 13 -124 59 -58 107 -107 106 -110 -2 -8
-15 -83 -18 -110 -5 -40 -16 -102 -25 -142 -8 -38 3 -50 26 -29 5 4 61 35 124
68 l115 60 35 -20 c55 -31 227 -117 235 -117 3 0 4 4 1 8 -2 4 -12 50 -21 102
-9 52 -18 106 -21 120 -13 62 -12 64 98 172 l108 106 -42 7 c-24 4 -50 9 -58
10 -8 1 -44 6 -80 11 -36 5 -69 9 -75 10 -5 1 -18 2 -27 3 -11 1 -39 46 -83
134 -37 72 -68 134 -70 136 -2 2 -34 -58 -71 -133z"/>
<path d="M8853 4648 c-4 -7 -35 -67 -68 -133 -60 -118 -61 -120 -100 -126 -72
-12 -114 -19 -166 -25 -113 -14 -113 -8 11 -123 109 -102 111 -105 105 -140
-3 -20 -8 -52 -10 -71 -2 -19 -9 -55 -14 -80 -14 -59 -20 -110 -15 -110 8 0
189 93 194 100 3 4 21 13 41 20 35 13 39 11 163 -54 70 -36 130 -66 132 -66 6
0 5 4 -26 180 l-20 115 105 104 c58 58 103 106 101 108 -3 3 -67 14 -162 28
-22 3 -60 9 -85 13 l-44 7 -67 133 c-44 89 -69 129 -75 120z"/>
</g>
</svg>
