<svg width="308" height="88" viewBox="0 0 308 88" fill="none" xmlns="http://www.w3.org/2000/svg">
<path fill-rule="evenodd" clip-rule="evenodd" d="M227.148 0.0120295C229.513 -0.0894792 231.86 0.452956 233.941 1.58152C235.58 2.52874 236.876 3.97123 237.644 5.70158C238.433 7.54982 238.777 9.55726 238.65 11.5627C238.536 13.8326 238.115 16.0765 237.399 18.2332C236.622 20.569 235.594 22.8137 234.333 24.9283C233.085 27.0523 231.578 29.0129 229.846 30.765C228.242 32.4138 226.398 33.811 224.377 34.9094C222.541 35.911 220.485 36.4419 218.393 36.4544C217.482 36.4796 216.582 36.2503 215.794 35.7923C215.1 35.3678 214.506 34.7991 214.052 34.1247C213.613 33.4706 213.282 32.7503 213.071 31.9911C212.89 31.3608 212.791 30.7095 212.777 30.0537C212.763 28.5794 213.081 27.1208 213.709 25.7865C214.287 24.5651 214.977 23.3995 215.769 22.3042C216.674 21.1206 217.702 20.0355 218.835 19.067C216.383 19.9985 213.711 20.9054 211.04 21.8124L211.036 21.8137C208.731 22.5494 206.205 23.3097 203.458 24.0945C200.787 24.8647 198.066 25.4546 195.316 25.8602C193.282 29.3053 191.637 32.9653 190.411 36.7733C189.185 40.4083 188.556 44.218 188.548 48.0542C188.55 49.8147 188.763 51.5685 189.185 53.2778C189.454 54.4092 189.875 55.4968 190.432 56.512C197.121 56.8325 203.805 57.2372 210.482 57.7246C210.795 57.1586 211.039 56.555 211.208 55.9264C211.557 54.6814 211.73 53.3937 211.723 52.1007C211.759 51.4398 211.624 50.7807 211.33 50.1878C211.116 49.7833 210.824 49.425 210.472 49.1333C210.204 48.9263 209.916 48.7456 209.614 48.5938C209.344 48.5938 209.221 48.373 209.221 48.2014C209.225 48.0544 209.269 47.9113 209.346 47.7864C209.424 47.6615 209.533 47.5593 209.663 47.4902C210.02 47.2861 210.429 47.1922 210.84 47.2204C211.332 47.2261 211.82 47.3088 212.287 47.4657C212.813 47.6424 213.297 47.9263 213.709 48.2995C214.156 48.7421 214.514 49.2666 214.763 49.8445C215.061 50.627 215.203 51.4601 215.18 52.2969C215.143 53.8812 214.784 55.4414 214.126 56.8828C213.956 57.2493 213.77 57.6074 213.569 57.9559C217.927 58.2908 222.282 58.6608 226.633 59.0655C240.242 60.2369 253.805 61.857 267.301 63.9227C267.801 63.6057 268.306 63.2862 268.814 62.9648C270.727 60.5124 272.517 58.1827 274.209 55.902L278.673 49.7955L282.916 43.9098C282.548 44.3513 282.033 44.9889 281.395 45.8227C280.757 46.6565 279.973 47.5884 279.114 48.5939C278.256 49.5994 277.275 50.6784 276.245 51.7329C275.235 52.7552 274.162 53.7135 273.032 54.6022C271.993 55.4142 270.876 56.1207 269.697 56.7113C268.689 57.2376 267.572 57.523 266.435 57.5451C265.893 57.5847 265.349 57.4889 264.852 57.2663C264.356 57.0437 263.922 56.7013 263.591 56.2699C262.909 55.268 262.574 54.0711 262.634 52.861C262.693 51.6176 263.028 50.4029 263.615 49.3051C264.351 47.7661 265.17 46.2679 266.068 44.8172C266.353 44.3472 266.646 43.8711 266.946 43.3881C266.003 44.5577 265.033 45.7251 264.007 46.9018C262.465 48.7355 260.828 50.4872 259.102 52.1498C257.587 53.5781 255.945 54.8668 254.198 56.0001C252.98 56.8875 251.533 57.4067 250.029 57.4961C248.83 57.5459 247.638 57.2839 246.571 56.7359C245.726 56.2754 244.997 55.6298 244.437 54.8475C243.909 54.112 243.534 53.2781 243.334 52.3951C243.131 51.6515 243.024 50.8851 243.015 50.1144C243.147 48.4021 243.622 46.734 244.413 45.2096C244.597 44.8078 244.784 44.4076 244.975 44.0093C244.219 44.9593 243.448 45.9182 242.647 46.8771C241.029 48.8145 239.459 50.5802 237.89 52.1497C236.526 53.5425 235.059 54.8297 233.5 56C232.527 56.8395 231.32 57.3615 230.042 57.496C229.123 57.5531 228.208 57.3308 227.418 56.8583C226.878 56.486 226.426 56.0007 226.094 55.436C225.741 54.7875 225.548 54.0646 225.53 53.3269C225.607 52.0335 225.958 50.7712 226.56 49.6238C227.334 47.9767 228.21 46.3796 229.184 44.8416L232.568 39.4709C232.807 39.1005 233.047 38.7311 233.287 38.3629C234.255 36.878 235.21 35.4121 235.977 33.9776C236.953 32.3442 237.822 30.6484 238.576 28.9011C239.205 27.5619 239.563 26.1119 239.631 24.634C239.631 24.4378 239.876 24.3397 240.415 24.2907C241.012 24.2732 241.608 24.3476 242.181 24.5114C242.834 24.7196 243.435 25.0621 243.947 25.5168C244.222 25.7815 244.437 26.1027 244.577 26.4583C244.717 26.8138 244.778 27.1954 244.756 27.5768C244.663 29.042 244.262 30.471 243.579 31.7704C242.728 33.5741 241.787 35.3339 240.759 37.0431C239.655 38.9069 238.527 40.7707 237.325 42.659C236.124 44.5473 235.118 46.2149 234.26 47.7109C233.579 48.8748 233.004 50.0978 232.543 51.365C232.249 52.2969 232.543 52.7628 233.156 52.7628C234.087 52.5902 234.943 52.1366 235.609 51.463C236.852 50.4237 238.024 49.3012 239.116 48.1033C240.416 46.7545 241.74 45.2585 243.113 43.5909C244.487 41.9233 245.786 40.3292 247.012 38.6861L250.323 34.2963L250.631 33.9121C251.156 33.0429 251.692 32.16 252.237 31.2627L252.244 31.2513L252.267 31.2145L252.806 30.3262L252.972 30.0539C254.183 28.0568 255.514 26.0715 256.831 24.1064L256.834 24.1033C257.408 23.2462 257.98 22.3929 258.538 21.5441C255.673 21.6021 252.808 21.3968 249.98 20.931C248.277 20.6504 246.624 20.1215 245.075 19.3615C244.046 18.9134 243.187 18.1489 242.623 17.1789C242.235 16.4194 242.034 15.579 242.034 14.7265C242.006 14.4526 242.056 14.1764 242.177 13.9293C242.196 13.8923 242.215 13.8562 242.236 13.821C242.299 13.3927 242.412 12.9722 242.573 12.5683C242.81 12.0179 243.161 11.5246 243.604 11.1214C244.026 10.7541 244.531 10.4934 245.075 10.3611C245.643 10.2123 246.229 10.1381 246.816 10.1404C247.279 10.1084 247.744 10.1874 248.17 10.3708C248.597 10.5542 248.973 10.8368 249.268 11.1949C249.809 11.9123 250.155 12.757 250.274 13.6473C250.396 14.537 250.349 15.4416 250.135 16.3135L250.209 16.334L250.249 16.3451C252.313 16.9216 254.436 17.259 256.577 17.3506H258.293H261.187C261.5 16.887 261.814 16.4282 262.124 15.9742L262.124 15.9737C263.027 14.6507 263.903 13.3684 264.669 12.127C265.234 11.2135 265.791 10.3662 266.312 9.57302C266.742 8.91826 267.148 8.3004 267.514 7.71264C268.247 6.53534 268.819 5.47882 269.267 4.65232L269.403 4.40198C269.748 3.82744 269.988 3.19645 270.114 2.53814C270.114 1.97409 270.359 1.72886 270.874 1.77791C271.514 1.8782 272.116 2.14932 272.615 2.56269C273.295 3.07499 273.877 3.70644 274.332 4.42645C274.843 5.14214 275.117 5.99956 275.117 6.87883C274.789 8.1748 274.205 9.39212 273.4 10.4593C272.247 12.2986 270.776 14.5303 268.986 17.1789C272.419 16.9827 275.337 16.7129 277.79 16.3451C280.242 15.9772 282.278 15.5848 283.896 15.1925C285.515 14.8001 286.765 14.4567 287.624 14.1624C288.192 13.9428 288.785 13.7945 289.39 13.721C289.961 13.6809 290.535 13.6809 291.106 13.721C291.235 13.8445 291.348 13.9496 291.447 14.0414C291.821 14.387 291.989 14.543 291.989 14.7755C291.989 15.0943 291.302 15.5358 289.954 16.1244C288.157 16.8723 286.314 17.503 284.436 18.0127C281.983 18.6748 279.531 19.337 276.343 19.9501C273.099 20.5857 269.825 21.0523 266.533 21.3479C264.964 23.6531 263.321 26.081 261.629 28.705C259.936 31.3291 258.318 33.7324 256.724 36.0622C255.389 38.0125 254.313 40.0316 253.307 41.918L253.307 41.9183L253.304 41.9227C253.109 42.2881 252.917 42.6485 252.726 43.0025C251.702 44.8536 250.841 46.7901 250.152 48.7901C249.657 50.0607 249.496 51.4371 249.685 52.7875C249.906 53.7684 250.691 54.2589 252.015 54.2589C252.797 54.1986 253.545 53.9181 254.173 53.4497C255.153 52.8051 256.079 52.0834 256.944 51.2916C257.974 50.3596 259.054 49.3296 260.182 48.128C261.31 46.9263 262.438 45.6756 263.566 44.4004C264.692 43.1271 265.77 41.8049 266.847 40.4827L266.852 40.4765C267.838 39.2666 268.742 38.118 269.583 37.0495L269.586 37.0449L269.819 36.7489L272.272 33.5853L273.89 31.4272C273.995 31.2838 274.132 31.1686 274.29 31.0904C274.588 30.4737 274.872 29.8501 275.141 29.2201C275.81 27.7237 276.257 26.1373 276.466 24.5115C276.466 24.3153 276.735 24.2417 277.275 24.2662C277.879 24.2965 278.471 24.4466 279.016 24.7077C279.685 25.0083 280.286 25.4422 280.782 25.9829C281.335 26.6011 281.625 27.4104 281.591 28.2391C281.494 29.6879 281.093 31.1 280.414 32.3836C279.569 34.2061 278.627 35.9825 277.594 37.7053C276.49 39.5691 275.337 41.4329 274.111 43.3213C272.885 45.2096 271.831 46.8772 270.972 48.3732C270.258 49.5351 269.666 50.7679 269.207 52.0518C268.912 53.0082 269.207 53.4741 269.82 53.4741C270.789 53.3757 271.705 52.982 272.444 52.346C273.646 51.4362 274.77 50.4272 275.804 49.3296C277.03 48.0789 278.256 46.6565 279.629 45.0134C280.353 44.1479 281.056 43.2755 281.753 42.4107L281.753 42.4099C282.379 41.6333 283 40.8627 283.627 40.1087L287.452 35.0322C288.108 34.1581 288.75 33.3244 289.361 32.5311C289.916 31.811 290.445 31.1242 290.935 30.4707C291.367 29.5027 291.696 28.4917 291.916 27.4544C292.128 26.5162 292.283 25.5663 292.382 24.6096C292.382 24.4134 292.651 24.3398 293.191 24.3643C293.81 24.397 294.418 24.5467 294.981 24.8057C295.658 25.1053 296.267 25.5392 296.772 26.081C297.325 26.6992 297.615 27.5085 297.581 28.3372C297.38 29.2809 297.041 30.1899 296.575 31.0348C295.889 32.4817 294.981 34.2965 293.804 36.4791C293.621 36.8183 293.436 37.1645 293.247 37.5177C292.22 39.4369 291.085 41.5578 289.635 43.8363C288.727 45.263 287.833 46.7515 286.912 48.2837C286.093 49.6483 285.252 51.0476 284.362 52.4686C288.384 49.4164 292.232 46.1414 295.888 42.6591C299.491 39.2634 302.737 35.5081 305.576 31.4518C305.73 31.2237 305.953 31.0517 306.213 30.9612C306.41 30.8834 306.629 30.8834 306.826 30.9612C306.909 30.9997 306.982 31.0578 307.037 31.1304C307.093 31.203 307.13 31.2881 307.145 31.3782C307.164 31.5966 307.103 31.8144 306.973 31.9913C305.665 34.2854 304.146 36.4528 302.436 38.4655C300.557 40.6802 298.551 42.7846 296.428 44.7682C294.197 46.8282 291.842 48.8391 289.316 50.801C286.79 52.7629 284.215 54.6758 281.616 56.4906C281.036 57.343 280.448 58.2221 279.85 59.1145L279.85 59.1147C278.729 60.7895 277.576 62.5112 276.392 64.191C276.139 64.5504 275.885 64.905 275.631 65.2558C283.431 66.5585 291.207 68.0103 298.954 69.6108L298.635 71.1313C290.402 69.8153 282.137 68.6618 273.842 67.6708C273.522 68.0964 273.201 68.5196 272.881 68.9426C272.227 69.8067 271.574 70.6696 270.923 71.5482C269.109 74.0006 267.294 76.0606 265.504 78.0471C263.862 79.8852 262.118 81.6291 260.28 83.2706C258.821 84.5884 257.226 85.7475 255.522 86.7284C254.269 87.4896 252.843 87.92 251.378 87.9792C250.484 88.0518 249.584 87.9341 248.739 87.634C247.894 87.3339 247.121 86.8581 246.473 86.238C245.418 84.9408 244.885 83.2969 244.977 81.6275C245.11 80.1971 245.785 78.8718 246.865 77.9244C248.442 76.343 250.157 74.9067 251.991 73.6327C254.149 72.0877 256.675 70.4446 259.569 68.728C260.756 68.0239 261.976 67.2744 263.227 66.4931C262.997 66.4695 262.766 66.446 262.536 66.4227C250.495 65.0984 238.404 63.9703 226.29 63.161C220.805 62.7773 215.317 62.4288 209.826 62.1197C208.41 63.187 206.843 64.0424 205.175 64.6569C202.552 65.5757 199.786 66.0159 197.008 65.9566C195.114 65.9943 193.232 65.6611 191.466 64.9757C189.943 64.4094 188.532 63.5793 187.297 62.5233C186.775 62.0592 186.287 61.561 185.834 61.0321C175.094 60.6684 164.348 60.4771 153.601 60.488C129.347 60.5125 105.093 61.1256 80.8879 62.6951C68.7976 63.4799 56.7073 64.4853 44.6416 65.8096C32.5759 67.1339 20.5348 68.6053 8.59165 70.7144L8.27283 69.1203C12.5945 68.1892 16.9265 67.3108 21.2681 66.4853C21.1622 66.4496 21.0567 66.4125 20.9516 66.3739C19.5498 65.8451 18.2481 65.0822 17.1015 64.1177C15.9335 63.1 14.9826 61.8572 14.3058 60.4637C13.5578 58.9381 13.1798 57.2578 13.2023 55.5589C13.2208 53.636 13.718 51.7481 14.6491 50.0656C15.6044 48.2568 16.8281 46.6031 18.2786 45.1608C19.7217 43.7576 21.3769 42.5907 23.1834 41.703C24.699 40.9045 26.376 40.4601 28.0882 40.4032C28.9089 40.3959 29.7289 40.4533 30.5406 40.5749C31.2796 40.6643 32.0045 40.8455 32.6987 41.1143C33.2728 41.346 33.7911 41.6971 34.2191 42.1444C34.6037 42.5663 34.814 43.1185 34.8077 43.6894C34.8394 44.0893 34.8394 44.4911 34.8077 44.891C34.8077 45.357 34.5869 45.5777 34.4152 45.5777C34.1327 45.5784 33.8518 45.5371 33.5815 45.4551L32.6005 45.1117C32.1108 44.9613 31.6108 44.8466 31.1046 44.7684C30.2921 44.6567 29.4722 44.6075 28.6522 44.6213C27.2027 44.6301 25.7663 44.8957 24.4096 45.406C23.0352 45.9241 21.7331 46.6165 20.5349 47.4661C19.4252 48.2672 18.4626 49.2546 17.6901 50.3844C17.0179 51.3236 16.6419 52.4425 16.6109 53.597C16.6086 54.6477 16.9067 55.6772 17.4694 56.5644C18.0642 57.4574 18.821 58.231 19.7009 58.8451C20.6455 59.4919 21.6892 59.9806 22.7909 60.292C23.9135 60.623 25.0785 60.7883 26.2489 60.7825C27.5768 60.7783 28.9034 60.6964 30.2217 60.5372C31.7322 60.3669 33.2308 60.1048 34.7095 59.7525C36.2437 59.4088 37.7455 58.933 39.1975 58.3301C40.5832 57.7887 41.8936 57.0716 43.0967 56.1966C44.1877 55.4029 45.1125 54.403 45.8189 53.2537C46.5229 52.0849 46.8881 50.7433 46.8735 49.3789C46.8687 47.3812 46.3628 45.4165 45.4021 43.6648C44.4066 41.7539 43.188 39.9676 41.7724 38.3432C40.2386 36.6102 38.6006 34.9722 36.8676 33.4384C35.1876 31.8785 33.6016 30.342 32.0636 28.852L32.0635 28.8519L31.9628 28.7544C28.6521 30.2748 25.4397 31.8689 22.3742 33.6591C19.4375 35.2425 16.6824 37.1421 14.1585 39.3241C11.8611 41.2783 9.91242 43.6085 8.39545 46.2153C6.91388 48.7764 6.1592 51.6933 6.21279 54.6515C6.17979 56.2478 6.36989 57.8408 6.77709 59.3846C7.07803 60.463 7.47184 61.5133 7.95419 62.5237C8.31139 63.2268 8.71272 63.9067 9.15583 64.5592C9.48827 64.972 9.6852 65.4772 9.71983 66.0061C9.70394 66.1973 9.63611 66.3806 9.52375 66.5362C9.41139 66.6918 9.25874 66.8137 9.08219 66.8889C8.56628 67.1763 7.97991 67.3123 7.39019 67.2813C6.45544 67.2839 5.53153 67.081 4.68394 66.6868C3.83635 66.2927 3.08581 65.717 2.48542 65.0006C1.69679 64.0668 1.08937 62.9939 0.694924 61.837C0.183433 60.2543 -0.0486905 58.5946 0.00848435 56.9322C-0.0428884 53.4824 0.865473 50.0862 2.6324 47.1227C4.46193 44.0953 6.78264 41.3934 9.4992 39.1279C12.5382 36.6037 15.8248 34.3935 19.3087 32.531C22.9137 30.5446 26.6659 28.6808 30.369 26.9886C29.1759 25.7568 28.1078 24.4095 27.1808 22.9667C26.4242 21.8486 25.9992 20.5394 25.9546 19.1901C25.9825 17.8329 26.318 16.4996 26.9356 15.2907C27.6493 13.8079 28.5745 12.4367 29.6823 11.2198C30.9625 9.79609 32.3839 8.50604 33.9249 7.36958C35.6065 6.11377 37.4146 5.03706 39.32 4.15696C41.339 3.23271 43.4413 2.50186 45.5982 1.9743C47.8269 1.4122 50.1174 1.13208 52.4159 1.1405C54.8909 0.93047 57.3677 1.52387 59.4788 2.83265C60.1744 3.40717 60.7252 4.13695 61.0873 4.96329C61.4493 5.78963 61.6125 6.68945 61.5633 7.59028C61.5558 9.61188 60.8347 11.566 59.5276 13.1081C57.9729 14.9554 56.1354 16.5446 54.0834 17.8167C51.5582 19.4144 48.9283 20.8401 46.2113 22.0839C43.2685 23.4572 40.203 24.855 37.0394 26.2529C37.9629 27.2379 38.9249 28.2326 39.9255 29.2672L39.9263 29.268C40.5198 29.8817 41.127 30.5095 41.7478 31.1577C43.3988 32.7821 44.9624 34.493 46.432 36.2832C47.7956 37.9488 48.9871 39.7482 49.9881 41.6539C50.9205 43.3624 51.4173 45.2745 51.4349 47.2208C51.4446 49.2135 51.0614 51.1886 50.3069 53.033C49.5711 54.8191 48.5524 56.4753 47.2902 57.9377C45.9975 59.4592 44.4948 60.7886 42.827 61.886C42.1502 62.3344 41.4558 62.7548 40.7457 63.1462C53.9556 61.1273 67.239 59.5941 80.5691 58.5506C90.2976 57.7259 100.038 57.086 109.785 56.6166C109.027 56.1715 108.371 55.5685 107.864 54.8473C107.329 54.1129 106.945 53.2792 106.736 52.3949C106.552 51.6482 106.454 50.8831 106.442 50.1142C106.575 48.4053 107.041 46.739 107.815 45.2095C108.711 43.2303 109.878 41.0021 111.294 38.5466L111.249 38.5879C110.065 39.6467 108.802 40.6141 107.472 41.4818C106.155 42.3567 104.739 43.0729 103.254 43.6154C102.114 45.4258 100.861 47.1623 99.5015 48.8144C98.1784 50.4107 96.7176 51.8878 95.1362 53.2287C93.7467 54.4515 92.2054 55.4901 90.5503 56.3187C89.119 57.0693 87.5312 57.4725 85.9152 57.4959C85.2903 57.4899 84.6669 57.4325 84.0514 57.3242C83.2917 57.2005 82.5751 56.8885 81.9669 56.4168C81.2215 55.8138 80.6328 55.0398 80.2504 54.1606C79.7011 52.8334 79.4498 51.4019 79.5145 49.967C79.5423 48.6714 79.6986 47.3816 79.9807 46.1168C80.0543 45.7859 80.1323 45.4562 80.2148 45.1276C79.7283 45.7094 79.2324 46.2933 78.7298 46.8771C77.142 48.7401 75.4381 50.5011 73.6287 52.1497C72.0512 53.5988 70.3344 54.8885 68.5033 56C67.1328 56.8711 65.5646 57.3819 63.944 57.4848C62.3233 57.5877 60.7028 57.2794 59.2332 56.5886C58.2094 56.0074 57.362 55.16 56.7808 54.1362C56.1948 53.1157 55.8118 51.9915 55.6528 50.8255C55.4584 49.6254 55.36 48.4117 55.3585 47.1959C55.4167 45.5965 55.6554 44.0088 56.0698 42.4629C56.6007 40.2962 57.2472 38.1595 58.007 36.0621C58.8408 33.7078 59.8465 31.2554 61.0237 28.7049C62.2008 26.1299 63.4759 23.604 64.8983 21.1026C66.2748 18.6269 67.798 16.2356 69.4597 13.9416C70.9884 11.8068 72.6947 9.80511 74.5606 7.95779C76.1668 6.33915 77.9912 4.95248 79.9806 3.8378C81.6813 2.85251 83.6064 2.3205 85.5718 2.29279C86.1247 2.30187 86.6754 2.36758 87.215 2.48894C87.7813 2.62084 88.3099 2.88099 88.76 3.24925C89.2518 3.64495 89.6461 4.14832 89.9125 4.72062C90.2473 5.49297 90.3985 6.33241 90.3541 7.17301C90.2038 9.71369 89.4378 12.1798 88.1223 14.3586C86.4071 17.5025 84.3953 20.4752 82.1141 23.2362C79.3697 26.5788 76.4297 29.7561 73.3098 32.7514C69.9746 35.9886 66.4434 39.0786 62.7893 41.9969C62.3997 43.4073 62.1531 44.8533 62.0535 46.3131C61.9555 47.4723 62.089 48.6393 62.4459 49.7464C62.7287 50.653 63.2964 51.4442 64.0646 52.0026C64.9752 52.5896 66.0484 52.8729 67.1301 52.8119C68.4847 52.7352 69.7916 52.2854 70.9066 51.5122C72.4149 50.5271 73.8274 49.4023 75.1249 48.1524C76.6241 46.7305 78.0405 45.2239 79.3675 43.64C80.0991 42.7948 80.7983 41.9561 81.4718 41.1172C81.9449 39.8889 82.4565 38.6811 83.0216 37.5089C83.6338 36.2377 84.3301 35.0088 85.1061 33.8304C85.7278 32.8803 86.4605 32.0075 87.2887 31.2308C87.8068 30.6695 88.5144 30.32 89.275 30.2498C89.8382 30.2056 90.4041 30.2056 90.9673 30.2498C91.3308 30.2924 91.691 30.3579 92.0462 30.4461C93.0491 28.5526 94.5391 26.961 96.3624 25.8356C98.1553 24.7927 100.199 24.2585 102.273 24.2906C103.28 24.2604 104.281 24.4706 105.191 24.9037C105.904 25.2762 106.524 25.8042 107.006 26.4487C107.453 27.0651 107.77 27.7659 107.938 28.5087C108.125 29.2046 108.224 29.9215 108.232 30.6422C108.178 32.1619 107.871 33.662 107.325 35.081C106.645 36.9704 105.825 38.8067 104.872 40.5744C106.026 40.042 107.126 39.4015 108.159 38.6615C109.181 37.9055 110.156 37.0865 111.077 36.2091C111.947 35.4464 112.766 34.6271 113.529 33.7567C114.363 32.9965 115.001 32.1873 115.54 31.4516C115.611 31.3351 115.703 31.2346 115.811 31.1545C116.045 30.7897 116.282 30.4227 116.521 30.0538L117.277 28.8903C118.883 26.4155 120.476 23.9614 122.088 21.544C119.214 21.6008 116.341 21.3956 113.505 20.9309C111.8 20.6573 110.147 20.1281 108.6 19.3613C107.71 18.9789 106.954 18.3416 106.426 17.5299C105.897 16.7181 105.622 15.7683 105.633 14.7999C105.61 14.5239 105.665 14.2471 105.79 14.0003C105.916 13.7535 106.108 13.5464 106.344 13.402C106.691 13.1551 107.097 13.003 107.521 12.9606C107.693 12.9606 107.938 13.1813 108.281 13.5492C108.836 14.0902 109.464 14.5523 110.145 14.9225C111.32 15.5573 112.562 16.0591 113.848 16.4185C115.912 16.991 118.035 17.3283 120.175 17.424H121.916H124.81L128.293 12.2004C129.372 10.5573 130.328 9.08582 131.137 7.78606C131.87 6.60908 132.442 5.5528 132.89 4.7264L133.026 4.4754C133.367 3.90149 133.6 3.26969 133.712 2.61157C133.712 2.04752 133.982 1.80228 134.497 1.85133C135.136 1.95618 135.736 2.22678 136.238 2.63611C136.914 3.15343 137.495 3.784 137.955 4.49987C138.455 5.22118 138.728 6.07497 138.74 6.95226C138.398 8.24786 137.807 9.46423 136.999 10.5328C135.846 12.3721 134.399 14.6037 132.609 17.2523C136.018 17.0561 138.96 16.7864 141.413 16.4185C143.865 16.0506 145.901 15.6583 147.495 15.2659C149.089 14.8735 150.364 14.5301 151.247 14.2358C151.805 14.0131 152.391 13.8647 152.988 13.7944C153.568 13.7532 154.15 13.7532 154.729 13.7944C154.851 13.9776 154.964 14.1174 155.059 14.2347C155.23 14.4471 155.342 14.5858 155.342 14.7754C155.342 15.0942 154.656 15.5357 153.307 16.1242C151.511 16.8632 149.671 17.4929 147.798 18.01C147.722 18.5189 147.488 18.9921 147.127 19.3615L145.68 21.1763C145.133 21.8939 144.649 22.6569 144.233 23.457C143.776 24.3783 143.549 25.3964 143.571 26.4244C143.573 28.0691 143.721 29.7104 144.012 31.3292C144.307 32.9723 144.625 34.5909 144.993 36.234C145.253 37.392 145.475 38.5136 145.696 39.6244L145.696 39.6249L145.696 39.6254L145.696 39.626C145.788 40.0907 145.88 40.5534 145.974 41.0161C146.268 42.585 146.416 44.1777 146.416 45.7738C146.414 46.4386 146.364 47.1024 146.268 47.7602C146.187 48.409 146.047 49.0491 145.852 49.673C146.818 48.8787 147.72 48.0095 148.549 47.0735C149.506 46.019 150.487 44.9154 151.468 43.7138L151.889 43.1983C152.74 42.1568 153.615 41.087 154.435 40.0352L157.133 36.4547L159.364 33.4137L160.836 31.4518C160.974 31.2248 161.193 31.0584 161.449 30.9859C161.641 30.9326 161.845 30.9326 162.037 30.9859C162.126 31.0191 162.205 31.0751 162.265 31.1483C162.325 31.2215 162.365 31.3092 162.381 31.4028C162.402 31.5134 162.4 31.6273 162.374 31.7371C162.349 31.8469 162.301 31.9502 162.233 32.0404C161.571 32.9723 160.688 34.2476 159.585 35.8907C158.481 37.5338 157.255 39.2749 155.857 41.1387C154.459 43.0025 152.963 44.9399 151.32 46.8773C149.754 48.7516 148.058 50.5135 146.244 52.1499C144.776 53.4855 143.175 54.6662 141.466 55.6737C145.519 55.6253 149.572 55.6036 153.625 55.6077C163.395 55.6175 173.164 55.8124 182.925 56.1878C182.743 55.7627 182.573 55.332 182.417 54.8964C181.942 53.5846 181.597 52.2292 181.387 50.8499C181.196 49.6819 181.089 48.5018 181.068 47.3185C181.089 43.7376 181.693 40.1841 182.858 36.7978C184.108 33.2019 185.753 29.7556 187.763 26.5223C185.071 26.4526 182.407 25.9645 179.866 25.0754C177.966 24.4098 176.216 23.3764 174.716 22.0344C173.498 20.9519 172.549 19.5999 171.945 18.0861C171.4 16.7709 171.109 15.3648 171.087 13.9416C171.059 12.7159 171.25 11.4951 171.651 10.3365C171.946 9.44826 172.394 8.61834 172.975 7.88416C173.375 7.33591 173.884 6.87665 174.471 6.53538C174.812 6.31622 175.197 6.17393 175.599 6.11844C175.771 6.11844 175.795 6.48633 175.721 7.22205C175.656 8.161 175.656 9.10332 175.721 10.0423C175.773 11.2971 175.979 12.5408 176.335 13.7454C176.738 15.1603 177.478 16.4561 178.493 17.522C179.8 18.8295 181.372 19.8415 183.103 20.4895C185.626 21.4041 188.292 21.8609 190.975 21.8382C193.339 18.7334 195.982 15.852 198.872 13.2303C201.684 10.6377 204.739 8.32181 207.995 6.31468C211.076 4.41096 214.368 2.87191 217.804 1.72865C220.807 0.65877 223.962 0.0791776 227.148 0.0120295ZM129.923 55.8851C129.721 55.7148 129.528 55.5322 129.347 55.3381C128.772 54.7051 128.33 53.9627 128.047 53.1554C127.775 52.3663 127.634 51.5378 127.63 50.703C127.595 50.1658 127.714 49.6297 127.974 49.1581C128.045 49.0165 128.149 48.8938 128.277 48.8C128.405 48.7063 128.553 48.6441 128.709 48.6185C128.851 48.6201 128.99 48.6568 129.114 48.7253C129.238 48.7937 129.344 48.8918 129.42 49.0109C129.668 49.3608 129.789 49.7847 129.764 50.2126C129.76 51.2146 130.107 52.1863 130.745 52.9592C131.214 53.3918 131.765 53.725 132.366 53.939C132.968 54.1529 133.606 54.2431 134.243 54.2041C134.879 54.1652 135.502 53.9979 136.072 53.7124C136.643 53.4268 137.15 53.0288 137.563 52.5423C138.365 51.2353 138.844 49.7556 138.96 48.2262C139.155 46.2609 139.155 44.2811 138.96 42.3159C138.764 40.1578 138.494 37.9997 138.127 35.8661C137.989 35.0674 137.858 34.2893 137.731 33.5319L136.042 35.9149C134.865 37.5335 133.59 39.2747 132.094 41.1876C130.598 43.1005 129.053 44.9888 127.41 46.9016C125.867 48.7351 124.23 50.4868 122.505 52.1497C120.994 53.584 119.352 54.8731 117.6 56C117.46 56.1027 117.317 56.2006 117.171 56.2934C121.42 56.126 125.671 55.9903 129.923 55.8851ZM195.878 61.4217C197.387 62.0239 199.007 62.3085 200.638 62.2536C201.987 62.2976 203.334 62.1577 204.641 61.8396C201.721 61.6886 198.8 61.5491 195.878 61.4217ZM218.908 34.3454C220.14 34.2719 221.317 33.8081 222.268 33.0211C223.588 31.996 224.774 30.8097 225.799 29.4897C227.023 27.9066 228.114 26.2251 229.061 24.4623C230.075 22.6078 230.952 20.6816 231.685 18.6992C232.381 16.8313 232.898 14.9016 233.23 12.9361C233.509 11.2719 233.509 9.5729 233.23 7.90871C233.026 6.57036 232.399 5.33258 231.44 4.37727C230.307 3.42269 228.846 2.94758 227.369 3.05296C224.86 3.08675 222.374 3.53421 220.012 4.37727C217.349 5.31088 214.806 6.55378 212.434 8.0804C209.81 9.72538 207.347 11.6139 205.077 13.7209C202.705 15.906 200.538 18.3029 198.602 20.8818C200.638 20.3913 202.698 19.8028 204.782 19.0916C206.867 18.3804 209 17.6937 211.208 17.0316C213.415 16.3694 215.646 15.7808 217.976 15.3149C220.401 14.8532 222.865 14.6233 225.333 14.6282C226.175 14.6056 227.011 14.7646 227.786 15.0942C228.374 15.4048 228.669 15.7727 228.669 16.1978C228.669 16.4185 228.35 16.7372 227.737 17.1296C227.632 17.1966 227.523 17.2671 227.409 17.3409C226.855 17.6999 226.179 18.1375 225.284 18.6256C224.381 19.1184 223.615 19.6628 222.756 20.2732C222.589 20.3918 222.419 20.5129 222.243 20.6366C221.163 21.4219 220.146 22.2911 219.202 23.2361C218.25 24.1514 217.425 25.1907 216.75 26.3261C216.131 27.4352 215.81 28.6856 215.818 29.9556C215.809 30.6553 215.917 31.3515 216.137 32.0156C216.303 32.5067 216.543 32.9698 216.848 33.3889C217.091 33.6903 217.391 33.9404 217.731 34.1247C218.072 34.3694 218.49 34.4826 218.908 34.4435V34.3454ZM35.4944 24.5853C38.6089 23.261 41.5763 21.9613 44.372 20.7106C47.1678 19.4598 49.6447 18.2581 51.7292 17.081C53.5712 16.0935 55.2843 14.8827 56.83 13.476C57.393 13.0186 57.854 12.4485 58.1835 11.8023C58.5129 11.1561 58.7035 10.4481 58.743 9.72384C58.7302 9.35043 58.6727 8.97989 58.5714 8.62024C58.4246 8.18967 58.1509 7.8136 57.7865 7.54126C57.2161 7.12934 56.5636 6.8449 55.8736 6.70738C54.706 6.45246 53.5125 6.33725 52.3177 6.36409C50.9962 6.38908 49.681 6.55351 48.394 6.8546C46.8837 7.18655 45.3933 7.60408 43.9305 8.10526C42.4096 8.62324 40.9266 9.24603 39.4918 9.9691C38.1284 10.6243 36.8239 11.3956 35.5926 12.2743C34.5588 12.9489 33.6325 13.7757 32.8456 14.7267C32.2218 15.454 31.8594 16.3691 31.8158 17.3263C31.8463 18.5387 32.193 19.7222 32.8214 20.7596C33.5935 22.1139 34.4882 23.3945 35.4944 24.5853ZM138.894 20.0991C135.905 20.6591 132.891 21.0757 129.862 21.3477L124.957 28.7049C124.06 30.0052 123.184 31.34 122.32 32.6545L122.32 32.6547C121.556 33.8192 120.801 34.9677 120.053 36.062C118.662 38.0945 117.533 40.2016 116.485 42.1554L116.485 42.1557L116.485 42.1559L116.485 42.1562C116.332 42.4417 116.181 42.724 116.031 43.0023C115.057 44.8616 114.237 46.7972 113.578 48.7899C113.078 50.0592 112.91 51.4348 113.088 52.7873C113.333 53.7683 114.093 54.2588 115.54 54.2588C116.313 54.1927 117.052 53.9125 117.674 53.4495C118.657 52.7993 119.592 52.078 120.47 51.2914C121.5 50.3595 122.579 49.3295 123.707 48.1278C124.835 46.9261 125.963 45.6755 127.066 44.4002C128.17 43.125 129.273 41.8007 130.352 40.4764L133.345 36.7487L135.797 33.5852L137.382 31.4391C137.294 30.9175 137.208 30.4067 137.121 29.9068C136.858 28.457 136.703 26.9897 136.655 25.517C136.658 24.3198 136.952 23.1413 137.513 22.0837C137.896 21.3697 138.359 20.7039 138.894 20.0991ZM87.3132 6.21662C86.0854 6.33362 84.9223 6.82115 83.978 7.61449C82.4931 8.76413 81.1141 10.0445 79.8578 11.4402C78.2385 13.187 76.7158 15.0208 75.2964 16.9335C73.7759 19.0916 72.2799 21.3233 70.882 23.6776C69.4841 26.0319 68.1353 28.4597 66.9092 31.0347C65.7557 33.3347 64.7403 35.7014 63.8682 38.1222C66.6007 36.0871 69.1901 33.8665 71.6178 31.4761C74.0702 29.0238 76.2527 26.694 78.2392 24.3397C80.07 22.1618 81.7812 19.8859 83.3649 17.5221C84.6188 15.6608 85.7493 13.7192 86.7492 11.7099C87.4305 10.4628 87.9026 9.11245 88.1469 7.71253C88.3186 6.70706 87.9998 6.21662 87.3132 6.21662ZM91.0409 52.9589C90.116 53.4109 89.1027 53.6537 88.0733 53.6702V53.7192C87.6928 53.7121 87.3176 53.6287 86.9699 53.4739C86.5851 53.3371 86.2338 53.1198 85.9398 52.8363C85.6071 52.5057 85.3409 52.1144 85.1551 51.6837C84.9395 51.1294 84.8393 50.5369 84.8609 49.9425C84.875 48.846 85.0399 47.7568 85.3512 46.7054C85.6987 45.5621 86.1333 44.447 86.6511 43.3701C87.1661 42.242 87.73 41.163 88.3431 40.1085C88.9562 39.0539 89.5695 38.0485 90.1581 37.1166V37.4108C90.1471 37.5004 90.1471 37.591 90.1581 37.6806C90.1534 38.5612 90.2355 39.4401 90.4033 40.3046C90.556 41.1285 90.8913 41.9078 91.3843 42.5853C91.9228 43.3066 92.6417 43.8733 93.4688 44.2285C94.6036 44.6921 95.824 44.9095 97.0492 44.8661C97.8698 44.8726 98.6898 44.8152 99.5015 44.6944C98.6697 45.8916 97.7776 47.0457 96.8285 48.1523C95.9617 49.1786 95.01 50.1302 93.9837 50.9971C93.0877 51.7703 92.0993 52.4293 91.0409 52.9589ZM104.357 35.4489C103.544 37.6209 102.535 39.7142 101.341 41.7025C100.702 41.8258 100.054 41.8996 99.4033 41.9232C98.8776 41.9131 98.3564 41.8221 97.8583 41.6534C97.3143 41.4829 96.8128 41.1987 96.387 40.8196C95.9287 40.4096 95.5613 39.9085 95.3081 39.3482C95.0039 38.6622 94.8612 37.9154 94.891 37.1656C94.9162 36.1769 95.1327 35.2025 95.5287 34.2962C95.9604 33.2195 96.5469 32.2116 97.2698 31.3043C98.0029 30.3562 98.8802 29.5287 99.8695 28.852C100.781 28.2283 101.855 27.8871 102.959 27.871C103.316 27.8369 103.675 27.8881 104.008 28.0203C104.34 28.1525 104.637 28.3619 104.872 28.6312C105.295 29.2228 105.503 29.941 105.461 30.6668C105.359 32.3108 104.986 33.9266 104.357 35.4489ZM251.549 82.2896C250.795 83.0124 249.836 83.4836 248.803 83.6385C248.352 83.6809 247.899 83.5869 247.503 83.3687C247.233 83.1696 247.014 82.909 246.865 82.6085C246.715 82.2602 246.64 81.8841 246.645 81.5049C246.789 80.5299 247.308 79.6498 248.092 79.0525C249.327 77.8764 250.656 76.802 252.064 75.8399C253.756 74.6627 255.743 73.3385 257.999 71.8915L265.356 67.2075C263.615 69.3656 261.899 71.4256 260.231 73.412C258.563 75.3984 256.994 77.1642 255.498 78.6602C254.251 79.9436 252.933 81.1553 251.549 82.2896ZM97.8583 87.9054C97.4236 87.9424 96.986 87.8898 96.5725 87.7508C96.159 87.6119 95.7785 87.3896 95.4544 87.0976C95.1303 86.8057 94.8696 86.4503 94.6883 86.0535C94.5071 85.6567 94.4091 85.227 94.4006 84.7909V75.7906C94.4126 75.3556 94.5128 74.9276 94.6952 74.5325C94.8777 74.1374 95.1385 73.7834 95.4619 73.4922C95.7852 73.2009 96.1644 72.9783 96.5764 72.8381C96.9884 72.6978 97.4244 72.6427 97.8583 72.6761H101.071C101.505 72.6427 101.941 72.6978 102.353 72.8381C102.765 72.9783 103.144 73.2009 103.467 73.4922C103.791 73.7834 104.052 74.1374 104.234 74.5325C104.417 74.9276 104.517 75.3556 104.529 75.7906V76.9432H101.169V76.1094C101.17 76.0503 101.157 75.9917 101.133 75.9377C101.109 75.8836 101.074 75.8353 101.03 75.7958C100.986 75.7564 100.934 75.7268 100.878 75.7089C100.821 75.6911 100.762 75.6855 100.703 75.6925H98.2508C97.9565 75.6925 97.7849 75.8397 97.7849 76.1094V84.4965C97.7849 84.7663 97.9565 84.9135 98.2508 84.9135H100.703C100.762 84.9204 100.821 84.9148 100.878 84.897C100.934 84.8792 100.986 84.8496 101.03 84.8102C101.074 84.7708 101.109 84.7224 101.133 84.6683C101.157 84.6142 101.17 84.5557 101.169 84.4965V83.6627H104.529V84.7909C104.521 85.227 104.423 85.6567 104.241 86.0535C104.06 86.4503 103.799 86.8057 103.475 87.0976C103.151 87.3896 102.77 87.6119 102.357 87.7508C101.943 87.8898 101.506 87.9424 101.071 87.9054H97.8583ZM113.48 87.8075H116.987V72.7989H108.551L106.099 87.8075H109.605L111.469 75.7908H113.48V87.8075ZM123.192 87.9054C122.757 87.9424 122.319 87.8898 121.906 87.7508C121.492 87.6119 121.112 87.3896 120.787 87.0976C120.463 86.8057 120.203 86.4503 120.021 86.0535C119.84 85.6567 119.742 85.227 119.734 84.7909V75.7906C119.746 75.3556 119.846 74.9276 120.029 74.5325C120.211 74.1374 120.472 73.7834 120.795 73.4922C121.118 73.2009 121.497 72.9783 121.909 72.8381C122.321 72.6978 122.758 72.6427 123.192 72.6761H126.38C126.813 72.6427 127.25 72.6978 127.662 72.8381C128.074 72.9783 128.453 73.2009 128.776 73.4922C129.1 73.7834 129.36 74.1374 129.543 74.5325C129.725 74.9276 129.825 75.3556 129.837 75.7906V84.7909C129.829 85.227 129.731 85.6567 129.55 86.0535C129.368 86.4503 129.108 86.8057 128.784 87.0976C128.46 87.3896 128.079 87.6119 127.665 87.7508C127.252 87.8898 126.814 87.9424 126.38 87.9054H123.192ZM126.036 84.9135C126.355 84.9135 126.478 84.7663 126.478 84.4965V76.1094C126.478 75.8397 126.478 75.6925 126.036 75.6925H123.584C123.527 75.6843 123.47 75.6894 123.415 75.7075C123.361 75.7255 123.311 75.756 123.271 75.7964C123.23 75.8369 123.2 75.8863 123.182 75.9407C123.164 75.995 123.159 76.0528 123.167 76.1094V84.4965C123.159 84.5532 123.164 84.611 123.182 84.6654C123.2 84.7197 123.23 84.769 123.271 84.8095C123.311 84.85 123.361 84.8805 123.415 84.8986C123.47 84.9166 123.527 84.9217 123.584 84.9135H126.036ZM138.593 75.7908H141.903V72.7989H131.824V75.7908H135.135V87.8075H138.593V75.7908ZM158.972 80.2788L161.547 87.8322H157.942L155.955 81.8973H154.141V87.8076H150.683V72.799H154.141V78.7093H155.931L157.942 72.7745H161.522L158.972 80.2788ZM170.351 87.8075H173.833L173.931 72.7989H165.397L162.945 87.8075H166.452L168.34 75.7908H170.351V87.8075ZM183.422 72.7989H186.684V84.7911C186.675 85.225 186.578 85.6525 186.398 86.0475C186.218 86.4425 185.96 86.7967 185.638 87.0882C185.317 87.3798 184.939 87.6027 184.529 87.7433C184.118 87.8838 183.683 87.9391 183.25 87.9056H180.111C179.677 87.939 179.241 87.8838 178.829 87.7436C178.418 87.6033 178.038 87.3808 177.715 87.0895C177.392 86.7983 177.131 86.4443 176.948 86.0492C176.766 85.6541 176.665 85.2261 176.653 84.7911V83.6629H179.989V84.4723C179.985 84.5312 179.994 84.5901 180.015 84.6453C180.036 84.7005 180.068 84.7506 180.11 84.7924C180.152 84.8341 180.202 84.8665 180.257 84.8874C180.312 84.9083 180.371 84.9173 180.43 84.9137H182.883C182.943 84.921 183.005 84.9149 183.063 84.8956C183.122 84.8764 183.175 84.8446 183.219 84.8025C183.264 84.7603 183.299 84.7088 183.321 84.6517C183.343 84.5947 183.353 84.5334 183.349 84.4723V81.7992H180.013C179.577 81.8326 179.139 81.7767 178.726 81.635C178.312 81.4932 177.932 81.2685 177.608 80.9747C177.284 80.6808 177.024 80.3239 176.843 79.9259C176.662 79.5279 176.564 79.0972 176.556 78.6601V72.7989H180.038V78.3903C180.034 78.446 180.043 78.5019 180.062 78.5541C180.082 78.6063 180.112 78.6537 180.152 78.6931C180.191 78.7326 180.239 78.7632 180.291 78.7829C180.343 78.8025 180.399 78.8109 180.455 78.8073H183.349L183.422 72.7989ZM189.602 72.7989V87.8075H196.371C196.793 87.8374 197.218 87.7827 197.619 87.6466C198.021 87.5105 198.391 87.2958 198.708 87.0149C199.026 86.734 199.284 86.3927 199.468 86.0108C199.652 85.629 199.758 85.2144 199.78 84.7911V81.7992C199.741 80.9708 199.377 80.1911 198.766 79.6305C198.154 79.0699 197.347 78.774 196.518 78.8073H193.011V75.7908H199.166V72.7989H189.602ZM195.929 84.7911H192.888L193.011 81.7992H195.929C196.223 81.7992 196.395 81.9463 196.395 82.216V84.3987C196.395 84.6439 196.223 84.7911 195.929 84.7911ZM212.63 87.8075H209.393V79.8864H209.221L205.91 87.8075H202.526V72.799H205.763V80.6956H205.935L209.246 72.7499H212.63V87.8075Z" fill="url(#paint0_linear)"/>
<defs>
<linearGradient id="paint0_linear" x1="153.574" y1="0" x2="153.574" y2="88" gradientUnits="userSpaceOnUse">
<stop stop-color="#F6C361"/>
<stop offset="1" stop-color="#DBA53F"/>
</linearGradient>
</defs>
</svg>
